<mxfile host="app.diagrams.net" modified="2023-06-14T12:55:37.189Z" agent="Mozilla/5.0 (Windows NT 10.0; Win64; x64) AppleWebKit/537.36 (KHTML, like Gecko) Chrome/114.0.0.0 Safari/537.36" etag="B_7Do6YkZuvIzAYVrlqN" version="21.3.8" type="device">
  <diagram name="페이지-1" id="FJkYnNuwcZ9Sj7oS1rsV">
    <mxGraphModel dx="1564" dy="663" grid="1" gridSize="10" guides="1" tooltips="1" connect="1" arrows="1" fold="1" page="1" pageScale="1" pageWidth="4681" pageHeight="3300" math="0" shadow="0">
      <root>
        <mxCell id="0" />
        <mxCell id="1" parent="0" />
        <mxCell id="JOcxVEQmh_a6kJTKSvqY-15" style="edgeStyle=orthogonalEdgeStyle;rounded=0;orthogonalLoop=1;jettySize=auto;html=1;entryX=0.5;entryY=0;entryDx=0;entryDy=0;entryPerimeter=0;" edge="1" parent="1" target="JOcxVEQmh_a6kJTKSvqY-17">
          <mxGeometry relative="1" as="geometry">
            <mxPoint x="1660" y="480" as="sourcePoint" />
            <mxPoint x="1660" y="640" as="targetPoint" />
          </mxGeometry>
        </mxCell>
        <mxCell id="QfG9UjP98lA-rOCOV29d-27" style="edgeStyle=orthogonalEdgeStyle;rounded=0;orthogonalLoop=1;jettySize=auto;html=1;" parent="1" source="QfG9UjP98lA-rOCOV29d-24" target="QfG9UjP98lA-rOCOV29d-26" edge="1">
          <mxGeometry relative="1" as="geometry" />
        </mxCell>
        <mxCell id="QfG9UjP98lA-rOCOV29d-30" style="edgeStyle=orthogonalEdgeStyle;rounded=0;orthogonalLoop=1;jettySize=auto;html=1;entryX=0;entryY=0.5;entryDx=0;entryDy=0;" parent="1" target="QfG9UjP98lA-rOCOV29d-25" edge="1">
          <mxGeometry relative="1" as="geometry">
            <mxPoint x="940.0000000000005" y="835" as="sourcePoint" />
          </mxGeometry>
        </mxCell>
        <mxCell id="QfG9UjP98lA-rOCOV29d-33" style="edgeStyle=orthogonalEdgeStyle;rounded=0;orthogonalLoop=1;jettySize=auto;html=1;" parent="1" target="QfG9UjP98lA-rOCOV29d-25" edge="1">
          <mxGeometry relative="1" as="geometry">
            <mxPoint x="940.0000000000005" y="835" as="sourcePoint" />
          </mxGeometry>
        </mxCell>
        <mxCell id="QfG9UjP98lA-rOCOV29d-34" style="edgeStyle=orthogonalEdgeStyle;rounded=0;orthogonalLoop=1;jettySize=auto;html=1;" parent="1" target="QfG9UjP98lA-rOCOV29d-26" edge="1">
          <mxGeometry relative="1" as="geometry">
            <mxPoint x="940.0000000000005" y="835.0000000000002" as="sourcePoint" />
          </mxGeometry>
        </mxCell>
        <mxCell id="QfG9UjP98lA-rOCOV29d-38" style="edgeStyle=orthogonalEdgeStyle;rounded=0;orthogonalLoop=1;jettySize=auto;html=1;entryX=0.5;entryY=1;entryDx=0;entryDy=0;" parent="1" source="JOcxVEQmh_a6kJTKSvqY-22" target="QfG9UjP98lA-rOCOV29d-17" edge="1">
          <mxGeometry relative="1" as="geometry">
            <mxPoint x="940.0000000000005" y="835.0000000000002" as="sourcePoint" />
          </mxGeometry>
        </mxCell>
        <mxCell id="QfG9UjP98lA-rOCOV29d-18" style="edgeStyle=orthogonalEdgeStyle;rounded=0;orthogonalLoop=1;jettySize=auto;html=1;entryX=0.5;entryY=0;entryDx=0;entryDy=0;" parent="1" target="QfG9UjP98lA-rOCOV29d-17" edge="1">
          <mxGeometry relative="1" as="geometry">
            <mxPoint x="940.0000000000005" y="730.0000000000002" as="sourcePoint" />
          </mxGeometry>
        </mxCell>
        <mxCell id="QfG9UjP98lA-rOCOV29d-17" value="코스 만들기" style="ellipse;whiteSpace=wrap;html=1;" parent="1" vertex="1">
          <mxGeometry x="1060" y="760" width="120" height="50" as="geometry" />
        </mxCell>
        <mxCell id="QfG9UjP98lA-rOCOV29d-96" style="rounded=0;orthogonalLoop=1;jettySize=auto;html=1;entryX=0;entryY=0.5;entryDx=0;entryDy=0;exitX=1;exitY=0.5;exitDx=0;exitDy=0;" parent="1" source="QfG9UjP98lA-rOCOV29d-25" target="QfG9UjP98lA-rOCOV29d-93" edge="1">
          <mxGeometry relative="1" as="geometry" />
        </mxCell>
        <mxCell id="QfG9UjP98lA-rOCOV29d-99" style="rounded=0;orthogonalLoop=1;jettySize=auto;html=1;entryX=0;entryY=0.5;entryDx=0;entryDy=0;exitX=1;exitY=0.5;exitDx=0;exitDy=0;" parent="1" source="QfG9UjP98lA-rOCOV29d-25" target="QfG9UjP98lA-rOCOV29d-92" edge="1">
          <mxGeometry relative="1" as="geometry" />
        </mxCell>
        <mxCell id="QfG9UjP98lA-rOCOV29d-25" value="식당" style="ellipse;whiteSpace=wrap;html=1;" parent="1" vertex="1">
          <mxGeometry x="1330" y="810" width="120" height="50" as="geometry" />
        </mxCell>
        <mxCell id="QfG9UjP98lA-rOCOV29d-97" style="rounded=0;orthogonalLoop=1;jettySize=auto;html=1;entryX=0;entryY=0.5;entryDx=0;entryDy=0;exitX=1;exitY=0.5;exitDx=0;exitDy=0;" parent="1" source="QfG9UjP98lA-rOCOV29d-26" target="QfG9UjP98lA-rOCOV29d-92" edge="1">
          <mxGeometry relative="1" as="geometry" />
        </mxCell>
        <mxCell id="QfG9UjP98lA-rOCOV29d-110" style="rounded=0;orthogonalLoop=1;jettySize=auto;html=1;entryX=0;entryY=0.5;entryDx=0;entryDy=0;exitX=1;exitY=0.5;exitDx=0;exitDy=0;" parent="1" source="QfG9UjP98lA-rOCOV29d-26" target="QfG9UjP98lA-rOCOV29d-93" edge="1">
          <mxGeometry relative="1" as="geometry" />
        </mxCell>
        <mxCell id="QfG9UjP98lA-rOCOV29d-26" value="sns" style="ellipse;whiteSpace=wrap;html=1;" parent="1" vertex="1">
          <mxGeometry x="1330" y="910" width="120" height="50" as="geometry" />
        </mxCell>
        <mxCell id="QfG9UjP98lA-rOCOV29d-31" style="edgeStyle=orthogonalEdgeStyle;rounded=0;orthogonalLoop=1;jettySize=auto;html=1;entryX=0;entryY=0.5;entryDx=0;entryDy=0;" parent="1" target="QfG9UjP98lA-rOCOV29d-25" edge="1">
          <mxGeometry relative="1" as="geometry">
            <mxPoint x="940.0000000000005" y="730.0000000000002" as="sourcePoint" />
            <Array as="points">
              <mxPoint x="1220" y="730" />
              <mxPoint x="1220" y="835" />
            </Array>
          </mxGeometry>
        </mxCell>
        <mxCell id="QfG9UjP98lA-rOCOV29d-32" style="edgeStyle=orthogonalEdgeStyle;rounded=0;orthogonalLoop=1;jettySize=auto;html=1;entryX=0;entryY=0.5;entryDx=0;entryDy=0;" parent="1" target="QfG9UjP98lA-rOCOV29d-26" edge="1">
          <mxGeometry relative="1" as="geometry">
            <mxPoint x="940.0000000000005" y="730.0000000000002" as="sourcePoint" />
            <Array as="points">
              <mxPoint x="1220" y="730" />
              <mxPoint x="1220" y="935" />
            </Array>
          </mxGeometry>
        </mxCell>
        <mxCell id="QfG9UjP98lA-rOCOV29d-35" style="edgeStyle=orthogonalEdgeStyle;rounded=0;orthogonalLoop=1;jettySize=auto;html=1;entryX=0;entryY=0.5;entryDx=0;entryDy=0;" parent="1" target="QfG9UjP98lA-rOCOV29d-24" edge="1">
          <mxGeometry relative="1" as="geometry">
            <mxPoint x="940.0000000000005" y="730" as="sourcePoint" />
          </mxGeometry>
        </mxCell>
        <mxCell id="QfG9UjP98lA-rOCOV29d-37" value="" style="edgeStyle=orthogonalEdgeStyle;rounded=0;orthogonalLoop=1;jettySize=auto;html=1;" parent="1" source="JOcxVEQmh_a6kJTKSvqY-21" target="QfG9UjP98lA-rOCOV29d-24" edge="1">
          <mxGeometry relative="1" as="geometry">
            <mxPoint x="940.0000000000005" y="730" as="sourcePoint" />
            <mxPoint x="1390" y="910" as="targetPoint" />
          </mxGeometry>
        </mxCell>
        <mxCell id="QfG9UjP98lA-rOCOV29d-94" style="rounded=0;orthogonalLoop=1;jettySize=auto;html=1;entryX=0;entryY=0.5;entryDx=0;entryDy=0;exitX=1;exitY=0.5;exitDx=0;exitDy=0;" parent="1" source="QfG9UjP98lA-rOCOV29d-24" target="QfG9UjP98lA-rOCOV29d-93" edge="1">
          <mxGeometry relative="1" as="geometry" />
        </mxCell>
        <mxCell id="QfG9UjP98lA-rOCOV29d-24" value="축제" style="ellipse;whiteSpace=wrap;html=1;" parent="1" vertex="1">
          <mxGeometry x="1330" y="705" width="120" height="50" as="geometry" />
        </mxCell>
        <mxCell id="QfG9UjP98lA-rOCOV29d-42" style="edgeStyle=orthogonalEdgeStyle;rounded=0;orthogonalLoop=1;jettySize=auto;html=1;exitX=0.5;exitY=1;exitDx=0;exitDy=0;" parent="1" edge="1">
          <mxGeometry relative="1" as="geometry">
            <mxPoint x="1660" y="700" as="sourcePoint" />
            <mxPoint x="1660" y="700" as="targetPoint" />
          </mxGeometry>
        </mxCell>
        <mxCell id="JOcxVEQmh_a6kJTKSvqY-5" style="rounded=0;orthogonalLoop=1;jettySize=auto;html=1;" edge="1" parent="1" source="QfG9UjP98lA-rOCOV29d-47">
          <mxGeometry relative="1" as="geometry">
            <mxPoint x="1995" y="510" as="targetPoint" />
          </mxGeometry>
        </mxCell>
        <mxCell id="QfG9UjP98lA-rOCOV29d-47" value="비회원" style="shape=umlActor;verticalLabelPosition=bottom;verticalAlign=top;html=1;outlineConnect=0;" parent="1" vertex="1">
          <mxGeometry x="2030" y="600" width="30" height="60" as="geometry" />
        </mxCell>
        <mxCell id="JOcxVEQmh_a6kJTKSvqY-26" style="edgeStyle=orthogonalEdgeStyle;rounded=0;orthogonalLoop=1;jettySize=auto;html=1;entryX=0.5;entryY=1;entryDx=0;entryDy=0;" edge="1" parent="1" source="QfG9UjP98lA-rOCOV29d-92" target="JOcxVEQmh_a6kJTKSvqY-23">
          <mxGeometry relative="1" as="geometry">
            <Array as="points">
              <mxPoint x="2220" y="890" />
            </Array>
          </mxGeometry>
        </mxCell>
        <mxCell id="QfG9UjP98lA-rOCOV29d-92" value="글쓰기" style="ellipse;whiteSpace=wrap;html=1;" parent="1" vertex="1">
          <mxGeometry x="1580" y="850" width="120" height="50" as="geometry" />
        </mxCell>
        <mxCell id="QfG9UjP98lA-rOCOV29d-93" value="글탐색" style="ellipse;whiteSpace=wrap;html=1;" parent="1" vertex="1">
          <mxGeometry x="1580" y="755" width="120" height="50" as="geometry" />
        </mxCell>
        <mxCell id="JOcxVEQmh_a6kJTKSvqY-4" style="rounded=0;orthogonalLoop=1;jettySize=auto;html=1;" edge="1" parent="1" source="JOcxVEQmh_a6kJTKSvqY-2">
          <mxGeometry relative="1" as="geometry">
            <mxPoint x="1990" y="510" as="targetPoint" />
          </mxGeometry>
        </mxCell>
        <mxCell id="JOcxVEQmh_a6kJTKSvqY-12" style="rounded=0;orthogonalLoop=1;jettySize=auto;html=1;entryX=1;entryY=0.5;entryDx=0;entryDy=0;" edge="1" parent="1" target="QfG9UjP98lA-rOCOV29d-92">
          <mxGeometry relative="1" as="geometry">
            <mxPoint x="1920" y="640" as="sourcePoint" />
          </mxGeometry>
        </mxCell>
        <mxCell id="JOcxVEQmh_a6kJTKSvqY-16" style="rounded=0;orthogonalLoop=1;jettySize=auto;html=1;entryX=1;entryY=0.5;entryDx=0;entryDy=0;" edge="1" parent="1">
          <mxGeometry relative="1" as="geometry">
            <mxPoint x="1920" y="640" as="sourcePoint" />
            <mxPoint x="1720" y="670" as="targetPoint" />
          </mxGeometry>
        </mxCell>
        <mxCell id="JOcxVEQmh_a6kJTKSvqY-2" value="회원" style="shape=umlActor;verticalLabelPosition=bottom;verticalAlign=top;html=1;outlineConnect=0;" vertex="1" parent="1">
          <mxGeometry x="1920" y="600" width="30" height="60" as="geometry" />
        </mxCell>
        <mxCell id="JOcxVEQmh_a6kJTKSvqY-27" style="edgeStyle=orthogonalEdgeStyle;rounded=0;orthogonalLoop=1;jettySize=auto;html=1;entryX=1;entryY=0.5;entryDx=0;entryDy=0;" edge="1" parent="1" source="JOcxVEQmh_a6kJTKSvqY-3" target="JOcxVEQmh_a6kJTKSvqY-18">
          <mxGeometry relative="1" as="geometry">
            <Array as="points">
              <mxPoint x="1930" y="455" />
              <mxPoint x="1930" y="455" />
            </Array>
          </mxGeometry>
        </mxCell>
        <mxCell id="JOcxVEQmh_a6kJTKSvqY-3" value="이용자" style="shape=umlActor;verticalLabelPosition=bottom;verticalAlign=top;html=1;outlineConnect=0;" vertex="1" parent="1">
          <mxGeometry x="1980" y="430" width="30" height="60" as="geometry" />
        </mxCell>
        <mxCell id="JOcxVEQmh_a6kJTKSvqY-25" style="edgeStyle=orthogonalEdgeStyle;rounded=0;orthogonalLoop=1;jettySize=auto;html=1;entryX=0.5;entryY=1;entryDx=0;entryDy=0;exitX=1;exitY=0.5;exitDx=0;exitDy=0;" edge="1" parent="1" source="JOcxVEQmh_a6kJTKSvqY-17" target="JOcxVEQmh_a6kJTKSvqY-23">
          <mxGeometry relative="1" as="geometry">
            <Array as="points">
              <mxPoint x="1760" y="675" />
              <mxPoint x="1760" y="890" />
              <mxPoint x="2220" y="890" />
            </Array>
          </mxGeometry>
        </mxCell>
        <mxCell id="JOcxVEQmh_a6kJTKSvqY-17" value="마이페이지" style="ellipse;whiteSpace=wrap;html=1;" vertex="1" parent="1">
          <mxGeometry x="1600" y="650" width="120" height="50" as="geometry" />
        </mxCell>
        <mxCell id="JOcxVEQmh_a6kJTKSvqY-43" style="edgeStyle=orthogonalEdgeStyle;rounded=0;orthogonalLoop=1;jettySize=auto;html=1;entryX=1;entryY=0.5;entryDx=0;entryDy=0;" edge="1" parent="1" source="JOcxVEQmh_a6kJTKSvqY-18" target="JOcxVEQmh_a6kJTKSvqY-19">
          <mxGeometry relative="1" as="geometry" />
        </mxCell>
        <mxCell id="JOcxVEQmh_a6kJTKSvqY-52" style="edgeStyle=orthogonalEdgeStyle;rounded=0;orthogonalLoop=1;jettySize=auto;html=1;entryX=0.5;entryY=0;entryDx=0;entryDy=0;" edge="1" parent="1" source="JOcxVEQmh_a6kJTKSvqY-18" target="JOcxVEQmh_a6kJTKSvqY-23">
          <mxGeometry relative="1" as="geometry">
            <Array as="points">
              <mxPoint x="1660" y="370" />
              <mxPoint x="2220" y="370" />
            </Array>
          </mxGeometry>
        </mxCell>
        <mxCell id="JOcxVEQmh_a6kJTKSvqY-18" value="메인" style="ellipse;whiteSpace=wrap;html=1;" vertex="1" parent="1">
          <mxGeometry x="1600" y="430" width="120" height="50" as="geometry" />
        </mxCell>
        <mxCell id="JOcxVEQmh_a6kJTKSvqY-48" style="edgeStyle=orthogonalEdgeStyle;rounded=0;orthogonalLoop=1;jettySize=auto;html=1;" edge="1" parent="1" source="JOcxVEQmh_a6kJTKSvqY-20" target="JOcxVEQmh_a6kJTKSvqY-21">
          <mxGeometry relative="1" as="geometry" />
        </mxCell>
        <mxCell id="JOcxVEQmh_a6kJTKSvqY-20" value="도지도" style="ellipse;whiteSpace=wrap;html=1;" vertex="1" parent="1">
          <mxGeometry x="900" y="580" width="120" height="50" as="geometry" />
        </mxCell>
        <mxCell id="JOcxVEQmh_a6kJTKSvqY-23" value="로그인/로그아웃" style="ellipse;whiteSpace=wrap;html=1;" vertex="1" parent="1">
          <mxGeometry x="2160" y="692.5" width="120" height="50" as="geometry" />
        </mxCell>
        <mxCell id="JOcxVEQmh_a6kJTKSvqY-37" style="edgeStyle=orthogonalEdgeStyle;rounded=0;orthogonalLoop=1;jettySize=auto;html=1;entryX=0;entryY=0.5;entryDx=0;entryDy=0;" edge="1" parent="1" source="JOcxVEQmh_a6kJTKSvqY-29" target="JOcxVEQmh_a6kJTKSvqY-34">
          <mxGeometry relative="1" as="geometry" />
        </mxCell>
        <mxCell id="JOcxVEQmh_a6kJTKSvqY-29" value="회원" style="shape=umlActor;verticalLabelPosition=bottom;verticalAlign=top;html=1;outlineConnect=0;" vertex="1" parent="1">
          <mxGeometry x="1400" y="1300" width="30" height="60" as="geometry" />
        </mxCell>
        <mxCell id="JOcxVEQmh_a6kJTKSvqY-50" style="edgeStyle=orthogonalEdgeStyle;rounded=0;orthogonalLoop=1;jettySize=auto;html=1;entryX=0;entryY=0.5;entryDx=0;entryDy=0;" edge="1" parent="1" source="JOcxVEQmh_a6kJTKSvqY-30" target="JOcxVEQmh_a6kJTKSvqY-49">
          <mxGeometry relative="1" as="geometry" />
        </mxCell>
        <mxCell id="JOcxVEQmh_a6kJTKSvqY-30" value="비회원" style="shape=umlActor;verticalLabelPosition=bottom;verticalAlign=top;html=1;outlineConnect=0;" vertex="1" parent="1">
          <mxGeometry x="1400" y="1450" width="30" height="60" as="geometry" />
        </mxCell>
        <mxCell id="JOcxVEQmh_a6kJTKSvqY-40" style="edgeStyle=orthogonalEdgeStyle;rounded=0;orthogonalLoop=1;jettySize=auto;html=1;entryX=0;entryY=0.5;entryDx=0;entryDy=0;" edge="1" parent="1" source="JOcxVEQmh_a6kJTKSvqY-31" target="JOcxVEQmh_a6kJTKSvqY-32">
          <mxGeometry relative="1" as="geometry" />
        </mxCell>
        <mxCell id="JOcxVEQmh_a6kJTKSvqY-41" style="edgeStyle=orthogonalEdgeStyle;rounded=0;orthogonalLoop=1;jettySize=auto;html=1;entryX=0;entryY=0.5;entryDx=0;entryDy=0;" edge="1" parent="1" source="JOcxVEQmh_a6kJTKSvqY-31" target="JOcxVEQmh_a6kJTKSvqY-33">
          <mxGeometry relative="1" as="geometry" />
        </mxCell>
        <mxCell id="JOcxVEQmh_a6kJTKSvqY-31" value="로그인" style="ellipse;whiteSpace=wrap;html=1;" vertex="1" parent="1">
          <mxGeometry x="1800" y="1455" width="120" height="50" as="geometry" />
        </mxCell>
        <mxCell id="JOcxVEQmh_a6kJTKSvqY-32" value="아이디 / 비밀번호&lt;br&gt;찾기" style="ellipse;whiteSpace=wrap;html=1;" vertex="1" parent="1">
          <mxGeometry x="2040" y="1492.5" width="120" height="50" as="geometry" />
        </mxCell>
        <mxCell id="JOcxVEQmh_a6kJTKSvqY-33" value="회원가입" style="ellipse;whiteSpace=wrap;html=1;" vertex="1" parent="1">
          <mxGeometry x="2040" y="1417.5" width="120" height="50" as="geometry" />
        </mxCell>
        <mxCell id="JOcxVEQmh_a6kJTKSvqY-38" style="edgeStyle=orthogonalEdgeStyle;rounded=0;orthogonalLoop=1;jettySize=auto;html=1;entryX=0;entryY=0.5;entryDx=0;entryDy=0;" edge="1" parent="1" source="JOcxVEQmh_a6kJTKSvqY-34" target="JOcxVEQmh_a6kJTKSvqY-35">
          <mxGeometry relative="1" as="geometry" />
        </mxCell>
        <mxCell id="JOcxVEQmh_a6kJTKSvqY-34" value="메인" style="ellipse;whiteSpace=wrap;html=1;" vertex="1" parent="1">
          <mxGeometry x="1550" y="1305" width="120" height="50" as="geometry" />
        </mxCell>
        <mxCell id="JOcxVEQmh_a6kJTKSvqY-35" value="로그아웃" style="ellipse;whiteSpace=wrap;html=1;" vertex="1" parent="1">
          <mxGeometry x="1800" y="1305" width="120" height="50" as="geometry" />
        </mxCell>
        <mxCell id="JOcxVEQmh_a6kJTKSvqY-47" style="edgeStyle=orthogonalEdgeStyle;rounded=0;orthogonalLoop=1;jettySize=auto;html=1;entryX=0;entryY=0.5;entryDx=0;entryDy=0;" edge="1" parent="1" source="JOcxVEQmh_a6kJTKSvqY-19" target="JOcxVEQmh_a6kJTKSvqY-22">
          <mxGeometry relative="1" as="geometry">
            <Array as="points">
              <mxPoint x="830" y="450" />
              <mxPoint x="830" y="835" />
            </Array>
          </mxGeometry>
        </mxCell>
        <mxCell id="JOcxVEQmh_a6kJTKSvqY-53" style="edgeStyle=orthogonalEdgeStyle;rounded=0;orthogonalLoop=1;jettySize=auto;html=1;entryX=0;entryY=0.5;entryDx=0;entryDy=0;" edge="1" parent="1" source="JOcxVEQmh_a6kJTKSvqY-19" target="JOcxVEQmh_a6kJTKSvqY-20">
          <mxGeometry relative="1" as="geometry">
            <Array as="points">
              <mxPoint x="830" y="450" />
              <mxPoint x="830" y="605" />
            </Array>
          </mxGeometry>
        </mxCell>
        <mxCell id="JOcxVEQmh_a6kJTKSvqY-19" value="전국지도" style="ellipse;whiteSpace=wrap;html=1;" vertex="1" parent="1">
          <mxGeometry x="900" y="430" width="120" height="50" as="geometry" />
        </mxCell>
        <mxCell id="JOcxVEQmh_a6kJTKSvqY-44" value="" style="edgeStyle=orthogonalEdgeStyle;rounded=0;orthogonalLoop=1;jettySize=auto;html=1;entryX=0.5;entryY=1;entryDx=0;entryDy=0;" edge="1" parent="1" target="JOcxVEQmh_a6kJTKSvqY-22">
          <mxGeometry relative="1" as="geometry">
            <mxPoint x="940.0000000000005" y="835.0000000000002" as="sourcePoint" />
            <mxPoint x="1120" y="810" as="targetPoint" />
          </mxGeometry>
        </mxCell>
        <mxCell id="JOcxVEQmh_a6kJTKSvqY-22" value="광역시지도" style="ellipse;whiteSpace=wrap;html=1;" vertex="1" parent="1">
          <mxGeometry x="900" y="810" width="120" height="50" as="geometry" />
        </mxCell>
        <mxCell id="JOcxVEQmh_a6kJTKSvqY-45" value="" style="edgeStyle=orthogonalEdgeStyle;rounded=0;orthogonalLoop=1;jettySize=auto;html=1;" edge="1" parent="1" target="JOcxVEQmh_a6kJTKSvqY-21">
          <mxGeometry relative="1" as="geometry">
            <mxPoint x="940.0000000000005" y="730" as="sourcePoint" />
            <mxPoint x="1330" y="730" as="targetPoint" />
          </mxGeometry>
        </mxCell>
        <mxCell id="JOcxVEQmh_a6kJTKSvqY-21" value="시군구 시도" style="ellipse;whiteSpace=wrap;html=1;" vertex="1" parent="1">
          <mxGeometry x="900" y="705" width="120" height="50" as="geometry" />
        </mxCell>
        <mxCell id="JOcxVEQmh_a6kJTKSvqY-51" style="edgeStyle=orthogonalEdgeStyle;rounded=0;orthogonalLoop=1;jettySize=auto;html=1;entryX=0;entryY=0.5;entryDx=0;entryDy=0;" edge="1" parent="1" source="JOcxVEQmh_a6kJTKSvqY-49" target="JOcxVEQmh_a6kJTKSvqY-31">
          <mxGeometry relative="1" as="geometry" />
        </mxCell>
        <mxCell id="JOcxVEQmh_a6kJTKSvqY-49" value="메인" style="ellipse;whiteSpace=wrap;html=1;" vertex="1" parent="1">
          <mxGeometry x="1550" y="1455" width="120" height="50" as="geometry" />
        </mxCell>
      </root>
    </mxGraphModel>
  </diagram>
</mxfile>
